/* XPM */
static char * mozicon50_xpm[] = {
"50 50 673 2",
"  	c None",
". 	c #848384",
"+ 	c #919091",
"@ 	c #797879",
"# 	c #898989",
"$ 	c #717171",
"% 	c #4A4A4A",
"& 	c #8D8D8D",
"* 	c #7C7C7C",
"= 	c #5B5B5B",
"- 	c #4B4B4B",
"; 	c #555555",
"> 	c #8E8E8E",
", 	c #727272",
"' 	c #666666",
") 	c #616161",
"! 	c #656565",
"~ 	c #747474",
"{ 	c #9B9A9B",
"] 	c #7F7D7D",
"^ 	c #757575",
"/ 	c #6B6B6B",
"( 	c #676767",
"_ 	c #6A6A6A",
": 	c #696969",
"< 	c #707070",
"[ 	c #767676",
"} 	c #7A7A7A",
"| 	c #808080",
"1 	c #818181",
"2 	c #908F90",
"3 	c #8A8A8A",
"4 	c #878787",
"5 	c #605050",
"6 	c #715555",
"7 	c #595B5B",
"8 	c #646464",
"9 	c #626262",
"0 	c #515151",
"a 	c #5A5A5A",
"b 	c #5C5C5C",
"c 	c #6E6E6E",
"d 	c #6D6D6D",
"e 	c #727172",
"f 	c #636363",
"g 	c #6D6C6C",
"h 	c #6C6C6C",
"i 	c #606161",
"j 	c #5D5D5D",
"k 	c #595959",
"l 	c #5E5E5E",
"m 	c #525252",
"n 	c #3E3E3E",
"o 	c #545454",
"p 	c #4D4D4D",
"q 	c #434343",
"r 	c #414141",
"s 	c #444444",
"t 	c #484848",
"u 	c #505050",
"v 	c #535353",
"w 	c #575858",
"x 	c #595A5A",
"y 	c #585858",
"z 	c #424444",
"A 	c #454949",
"B 	c #515353",
"C 	c #5C5D5D",
"D 	c #686868",
"E 	c #4E4E4E",
"F 	c #313031",
"G 	c #272727",
"H 	c #303030",
"I 	c #3D3D3D",
"J 	c #474747",
"K 	c #4F4F4F",
"L 	c #484B4B",
"M 	c #434444",
"N 	c #6C5757",
"O 	c #8F8787",
"P 	c #A3A0A0",
"Q 	c #A47C7C",
"R 	c #934A4A",
"S 	c #774646",
"T 	c #554D4D",
"U 	c #575757",
"V 	c #484748",
"W 	c #3F3F3F",
"X 	c #A6A6A6",
"Y 	c #B0B0B0",
"Z 	c #AEAEAE",
"` 	c #A5A5A5",
" .	c #9F9F9F",
"..	c #A0A0A0",
"+.	c #929393",
"@.	c #A98F8F",
"#.	c #CC7E7E",
"$.	c #E6C2C2",
"%.	c #F0CFCF",
"&.	c #EC8080",
"*.	c #EB6565",
"=.	c #EA5E5E",
"-.	c #EB9C9C",
";.	c #CABFBF",
">.	c #5D5959",
",.	c #585A5A",
"'.	c #464646",
").	c #676667",
"!.	c #5A5959",
"~.	c #C0B2B2",
"{.	c #F28686",
"].	c #E85B5B",
"^.	c #EA6C6C",
"/.	c #F9EDED",
"(.	c #FAF6F6",
"_.	c #F6D2D2",
":.	c #F1A6A6",
"<.	c #F6CDCD",
"[.	c #FBEFEF",
"}.	c #E8D4D4",
"|.	c #6C5E5E",
"1.	c #606060",
"2.	c #5B595B",
"3.	c #6C6B6C",
"4.	c #707373",
"5.	c #E6CBCB",
"6.	c #EF7171",
"7.	c #E65252",
"8.	c #E96F6F",
"9.	c #F9EFEF",
"0.	c #FBFBFB",
"a.	c #FBF9F9",
"b.	c #FCFFFF",
"c.	c #EF9999",
"d.	c #E64C4C",
"e.	c #E86262",
"f.	c #EA8989",
"g.	c #D18B8B",
"h.	c #6E5454",
"i.	c #565656",
"j.	c #5E5F5F",
"k.	c #5F5F5F",
"l.	c #494949",
"m.	c #5E5D5E",
"n.	c #393A39",
"o.	c #6C7373",
"p.	c #E5C3C3",
"q.	c #E85D5D",
"r.	c #E54A4A",
"s.	c #E85F5F",
"t.	c #F6D6D6",
"u.	c #FBFAFA",
"v.	c #FAF8F8",
"w.	c #F8E1E1",
"x.	c #E75757",
"y.	c #E75656",
"z.	c #E15454",
"A.	c #DD9090",
"B.	c #C3B8B8",
"C.	c #5F5B5B",
"D.	c #6E6C6C",
"E.	c #5C5454",
"F.	c #343434",
"G.	c #616061",
"H.	c #524E4E",
"I.	c #CD3030",
"J.	c #F6C6C6",
"K.	c #F8E6E6",
"L.	c #F4C2C2",
"M.	c #F0A4A4",
"N.	c #F7DADA",
"O.	c #FBFFFF",
"P.	c #FBFEFE",
"Q.	c #ED8A8A",
"R.	c #E65151",
"S.	c #E75353",
"T.	c #E65353",
"U.	c #DE5151",
"V.	c #DA9999",
"W.	c #D3CACA",
"X.	c #A69D9D",
"Y.	c #545252",
"Z.	c #714848",
"`.	c #504444",
" +	c #3B3B3B",
".+	c #393939",
"++	c #3A3A3A",
"@+	c #454C4C",
"#+	c #A82E2E",
"$+	c #ED6868",
"%+	c #FBFCFC",
"&+	c #FBF8F8",
"*+	c #F9ECEC",
"=+	c #E96B6B",
"-+	c #E64D4D",
";+	c #EB7B7B",
">+	c #F2B2B2",
",+	c #E97070",
"'+	c #E75D5D",
")+	c #E65656",
"!+	c #E44E4E",
"~+	c #D94B4B",
"{+	c #D8A5A5",
"]+	c #CDC3C3",
"^+	c #BEB5B5",
"/+	c #716F6F",
"(+	c #6E5050",
"_+	c #3E1616",
":+	c #5B5A5A",
"<+	c #3C3C3C",
"[+	c #333333",
"}+	c #353535",
"|+	c #333233",
"1+	c #373B3B",
"2+	c #7B5656",
"3+	c #E41E1E",
"4+	c #F5D5D5",
"5+	c #F2BABA",
"6+	c #E75959",
"7+	c #EC8181",
"8+	c #EB7676",
"9+	c #E64F4F",
"0+	c #ED8C8C",
"a+	c #FCFEFE",
"b+	c #F7E4E4",
"c+	c #F3B9B9",
"d+	c #E99191",
"e+	c #D96F6F",
"f+	c #D2A8A8",
"g+	c #C7C0C0",
"h+	c #B5B0B0",
"i+	c #999898",
"j+	c #5F4C4C",
"k+	c #451111",
"l+	c #2C2222",
"m+	c #454646",
"n+	c #2E2E2E",
"o+	c #2F2F2F",
"p+	c #595859",
"q+	c #282828",
"r+	c #5C6767",
"s+	c #D64949",
"t+	c #E65959",
"u+	c #FAFFFF",
"v+	c #FAF7F7",
"w+	c #E86161",
"x+	c #EC7878",
"y+	c #EF9393",
"z+	c #EC7C7C",
"A+	c #E75858",
"B+	c #F4BFBF",
"C+	c #F8F0F0",
"D+	c #F7E8E8",
"E+	c #EEDBDB",
"F+	c #DEC3C3",
"G+	c #BE4A4A",
"H+	c #B25E5E",
"I+	c #A57B7B",
"J+	c #969090",
"K+	c #665353",
"L+	c #3E0D0D",
"M+	c #190505",
"N+	c #3D4141",
"O+	c #181818",
"P+	c #2C2C2C",
"Q+	c #2A2A2A",
"R+	c #262626",
"S+	c #1B1B1B",
"T+	c #313232",
"U+	c #BBAEAE",
"V+	c #DB2E2E",
"W+	c #F1B9B9",
"X+	c #F9F9F9",
"Y+	c #F9FAFA",
"Z+	c #F4D0D0",
"`+	c #E34040",
" @	c #E96A6A",
".@	c #EB7575",
"+@	c #E75C5C",
"@@	c #E75E5E",
"#@	c #F6DEDE",
"$@	c #F9F2F2",
"%@	c #F3DCDC",
"&@	c #E5D2D2",
"*@	c #B23232",
"=@	c #A43838",
"-@	c #943535",
";@	c #803232",
">@	c #603838",
",@	c #361717",
"'@	c #1B0606",
")@	c #2B2B2B",
"!@	c #202424",
"~@	c #252425",
"{@	c #323232",
"]@	c #252525",
"^@	c #191819",
"/@	c #7B7B7B",
"(@	c #D5D4D4",
"_@	c #F7FFFF",
":@	c #E24040",
"<@	c #EA7F7F",
"[@	c #F1BCBC",
"}@	c #EC8D8D",
"|@	c #E34242",
"1@	c #E33D3D",
"2@	c #E33F3F",
"3@	c #E23838",
"4@	c #E86A6A",
"5@	c #F8F5F5",
"6@	c #F7E9E9",
"7@	c #F4DDDD",
"8@	c #E8D1D1",
"9@	c #DACCCC",
"0@	c #C07777",
"a@	c #A52929",
"b@	c #962C2C",
"c@	c #852929",
"d@	c #6C1F1F",
"e@	c #4F3232",
"f@	c #384E4E",
"g@	c #253131",
"h@	c #212222",
"i@	c #181C1C",
"j@	c #191919",
"k@	c #0A0A0A",
"l@	c #363636",
"m@	c #313131",
"n@	c #B6B7B7",
"o@	c #CDCCCC",
"p@	c #F4CECE",
"q@	c #DD1515",
"r@	c #DD1616",
"s@	c #DD1010",
"t@	c #F3C5C5",
"u@	c #EFA4A4",
"v@	c #EA7676",
"w@	c #E44545",
"x@	c #EE9C9C",
"y@	c #F6E1E1",
"z@	c #E9D0D0",
"A@	c #DBC6C6",
"B@	c #CCC3C3",
"C@	c #AB4141",
"D@	c #961E1E",
"E@	c #851C1C",
"F@	c #6F1414",
"G@	c #560B0B",
"H@	c #463434",
"I@	c #2F4242",
"J@	c #273B3B",
"K@	c #1F1B1B",
"L@	c #170E0E",
"M@	c #222222",
"N@	c #0D0D0D",
"O@	c #1E1E1E",
"P@	c #1D1C1D",
"Q@	c #0B0B0B",
"R@	c #F1ACAC",
"S@	c #DE1B1B",
"T@	c #DE1C1C",
"U@	c #E23A3A",
"V@	c #F7EEEE",
"W@	c #F9F7F7",
"X@	c #F9F6F6",
"Y@	c #F7EDED",
"Z@	c #F5E3E3",
"`@	c #E54E4E",
" #	c #E67070",
".#	c #E3A9A9",
"+#	c #DCCCCC",
"@#	c #CDBFBF",
"##	c #BCADAD",
"$#	c #971717",
"%#	c #851313",
"&#	c #741010",
"*#	c #600D0D",
"=#	c #4C0C0C",
"-#	c #3B3636",
";#	c #293D3D",
">#	c #273A3A",
",#	c #1F1C1C",
"'#	c #180E0E",
")#	c #161717",
"!#	c #3B3A3B",
"~#	c #0E0E0E",
"{#	c #161616",
"]#	c #383838",
"^#	c #848484",
"/#	c #9FA0A0",
"(#	c #D3D3D3",
"_#	c #ED9999",
":#	c #DE1A1A",
"<#	c #E65C5C",
"[#	c #F8F4F4",
"}#	c #F6F0F0",
"|#	c #F5EBEB",
"1#	c #F4D3D3",
"2#	c #D81313",
"3#	c #CD1818",
"4#	c #BF1212",
"5#	c #B51818",
"6#	c #AE4848",
"7#	c #A46262",
"8#	c #8A1B1B",
"9#	c #791515",
"0#	c #670F0F",
"a#	c #540A0A",
"b#	c #400B0B",
"c#	c #303939",
"d#	c #263A3A",
"e#	c #1F1818",
"f#	c #0F0404",
"g#	c #1D1D1D",
"h#	c #141414",
"i#	c #2C2B2C",
"j#	c #9B9C9C",
"k#	c #BEB9B9",
"l#	c #E28A8A",
"m#	c #D71616",
"n#	c #D81717",
"o#	c #E26D6D",
"p#	c #EFE2E2",
"q#	c #EFE1E1",
"r#	c #EFDCDC",
"s#	c #EED9D9",
"t#	c #E19090",
"u#	c #C51010",
"v#	c #BB1919",
"w#	c #B11717",
"x#	c #A31515",
"y#	c #950A0A",
"z#	c #924F4F",
"A#	c #8B8383",
"B#	c #765C5C",
"C#	c #613A3A",
"D#	c #4B2121",
"E#	c #351111",
"F#	c #293737",
"G#	c #283838",
"H#	c #283A3A",
"I#	c #1E0E0E",
"J#	c #160C0C",
"K#	c #131313",
"L#	c #5B5A5B",
"M#	c #0C0C0D",
"N#	c #292929",
"O#	c #434243",
"P#	c #999999",
"Q#	c #ACA8A8",
"R#	c #C85D5D",
"S#	c #D85050",
"T#	c #CF0E0E",
"U#	c #DA6C6C",
"V#	c #E5CACA",
"W#	c #E4C6C6",
"X#	c #E1C1C1",
"Y#	c #DCC1C1",
"Z#	c #C35050",
"`#	c #B11212",
" $	c #A81515",
".$	c #9D1414",
"+$	c #921212",
"@$	c #861010",
"#$	c #846060",
"$$	c #7A7070",
"%$	c #696464",
"&$	c #454747",
"*$	c #2B1E1E",
"=$	c #210D0D",
"-$	c #241616",
";$	c #272323",
">$	c #1F0808",
",$	c #1A1111",
"'$	c #2A2B2B",
")$	c #151515",
"!$	c #1A1A1A",
"~$	c #212121",
"{$	c #959595",
"]$	c #A4A8A8",
"^$	c #AC7B7B",
"/$	c #D3AFAF",
"($	c #D6A4A4",
"_$	c #CF7676",
":$	c #D3A4A4",
"<$	c #D0AEAE",
"[$	c #CAA7A7",
"}$	c #C5ABAB",
"|$	c #A92323",
"1$	c #9F1212",
"2$	c #951212",
"3$	c #8C1111",
"4$	c #810F0F",
"5$	c #781D1D",
"6$	c #755C5C",
"7$	c #685C5C",
"8$	c #595050",
"9$	c #494444",
"0$	c #373939",
"a$	c #250A0A",
"b$	c #240505",
"c$	c #240404",
"d$	c #260F0F",
"e$	c #2A2E2E",
"f$	c #1A1C1C",
"g$	c #232323",
"h$	c #201F20",
"i$	c #838383",
"j$	c #AFB2B2",
"k$	c #B5A1A1",
"l$	c #BD9D9D",
"m$	c #B45757",
"n$	c #A70A0A",
"o$	c #A92C2C",
"p$	c #AB5A5A",
"q$	c #A97777",
"r$	c #951A1A",
"s$	c #8C1010",
"t$	c #840C0C",
"u$	c #7B0D0D",
"v$	c #710B0B",
"w$	c #6B2828",
"x$	c #675555",
"y$	c #5A4B4B",
"z$	c #4B4040",
"A$	c #3B3535",
"B$	c #2F2525",
"C$	c #270303",
"D$	c #270606",
"E$	c #2E2121",
"F$	c #252626",
"G$	c #1A1B1A",
"H$	c #212021",
"I$	c #0D0C0D",
"J$	c #B5B6B6",
"K$	c #BBB1B1",
"L$	c #A66565",
"M$	c #8F0808",
"N$	c #8E0909",
"O$	c #8B0606",
"P$	c #8A1C1C",
"Q$	c #8E5C5C",
"R$	c #834444",
"S$	c #792F2F",
"T$	c #6E1B1B",
"U$	c #630C0C",
"V$	c #603535",
"W$	c #584747",
"X$	c #4B3B3B",
"Y$	c #3E3030",
"Z$	c #352B2B",
"`$	c #2E0E0E",
" %	c #2B0505",
".%	c #2B0404",
"+%	c #2C0909",
"@%	c #121414",
"#%	c #1F1F1F",
"$%	c #171617",
"%%	c #070707",
"&%	c #161516",
"*%	c #7D7D7D",
"=%	c #A4A4A4",
"-%	c #C5C1C1",
";%	c #BB9A9A",
">%	c #9D4E4E",
",%	c #7E1111",
"'%	c #771E1E",
")%	c #7B5858",
"!%	c #775757",
"~%	c #6F4F4F",
"{%	c #664545",
"]%	c #5C3838",
"^%	c #4E1212",
"/%	c #462020",
"(%	c #3C2424",
"_%	c #382727",
":%	c #351E1E",
"<%	c #2F0606",
"[%	c #2F0404",
"}%	c #361B1B",
"|%	c #211D1D",
"1%	c #121313",
"2%	c #151415",
"3%	c #171717",
"4%	c #404040",
"5%	c #AAA9A9",
"6%	c #BABBBB",
"7%	c #C2C5C5",
"8%	c #BCC0C0",
"9%	c #A19D9D",
"0%	c #7D6E6E",
"a%	c #634343",
"b%	c #5F3E3E",
"c%	c #583A3A",
"d%	c #4D1E1E",
"e%	c #400000",
"f%	c #370202",
"g%	c #310202",
"h%	c #320404",
"i%	c #361212",
"j%	c #340C0C",
"k%	c #350B0B",
"l%	c #2F1D1D",
"m%	c #868686",
"n%	c #ABABAB",
"o%	c #A1A1A1",
"p%	c #7E7D7D",
"q%	c #675E5E",
"r%	c #665050",
"s%	c #5B3939",
"t%	c #4D2929",
"u%	c #442121",
"v%	c #370000",
"w%	c #310000",
"x%	c #330000",
"y%	c #370909",
"z%	c #3D1E1E",
"A%	c #3E2121",
"B%	c #3E1D1D",
"C%	c #2F0808",
"D%	c #120808",
"E%	c #7E7E7E",
"F%	c #9E9E9E",
"G%	c #ADADAD",
"H%	c #BABABA",
"I%	c #C0BCBC",
"J%	c #BCB6B6",
"K%	c #B7AEAE",
"L%	c #AFA4A4",
"M%	c #AA9C9C",
"N%	c #A28E8E",
"O%	c #9B8585",
"P%	c #886C6C",
"Q%	c #684141",
"R%	c #421C1C",
"S%	c #381212",
"T%	c #411515",
"U%	c #2D0606",
"V%	c #110A0A",
"W%	c #000000",
"X%	c #1B1A1B",
"Y%	c #101010",
"Z%	c #8F8F8F",
"`%	c #ACACAC",
" &	c #B2B2B2",
".&	c #B7B7B7",
"+&	c #B9B9B9",
"@&	c #BCBBBB",
"#&	c #BEBEBE",
"$&	c #C6C5C5",
"%&	c #CECCCC",
"&&	c #A39292",
"*&	c #2F1818",
"=&	c #A2A2A2",
"-&	c #A8A8A8",
";&	c #B7B8B8",
">&	c #CFD0D0",
",&	c #060606",
"'&	c #787878",
")&	c #969696",
"!&	c #9D9D9D",
"~&	c #A3A3A3",
"{&	c #040404",
"]&	c #111111",
"^&	c #242424",
"/&	c #B1B1B1",
"(&	c #050505",
"_&	c #0C0C0C",
":&	c #090909",
"<&	c #080808",
"[&	c #8C8C8C",
"}&	c #888888",
"|&	c #929292",
"                                                                                                    ",
"                                                                                                    ",
"                                                                                                    ",
"                                                      .                                             ",
"                                                  + @                                               ",
"                                              # $ %                                                 ",
"                                          & * = - ;                                                 ",
"                                        > , ' ) ! ~ > {                                             ",
"                                    > ] ^ / ! ( _ : _ < [ } | 1                                     ",
"                              2 3 4 5 6 7 8 9 8 ' ' 9 ; 0 a b c d c                                 ",
"                        e / f 8 f 8 g h i j = k b b l ' m n o l h 9 = c                             ",
"                    ) a p q r s t p u v w x y 0 z A B C < b s - = D a E y                           ",
"                    F G H I J - p K E L M N O P Q R S T b _ ' y t U ! V W                           ",
"                      1 X Y Z `  ...+.@.#.$.%.&.*.=.-.;.>.,._ 9 f '.y ).'.                          ",
"                        4 ~ = y _ !.~.{.].^./.(._.:.<.[.}.|.a f l 1.q 9 U 2.                        ",
"                      3.v J u j 4.5.6.7.8.9.0.a.b.c.d.e.f.g.h.9 i.j.0 q k.l.m.                      ",
"                      n.W E b o.p.q.r.s.t.u.v.0.w.7.x.y.z.A.B.C.D.E.i F.E '.q p                     ",
"                    F G.8 a H.I.J.K.L.M.N.O.P.b.Q.R.S.T.U.V.W.X.Y.Z.`.1. +'..+++                    ",
"                      d ; @+#+$+%+&+*+=+-+x.;+>+,+'+)+!+~+{+]+^+/+(+_+:+'.<+[+}+|+                  ",
"                    9 % 1+2+3+4+0.a.5+6+7+8+9+0+a+b+c+d+e+f+g+h+i+j+k+l+m+++ +n+o+                  ",
"                  p+q q+r+s+t+u+v+b.w+x+y+z+A+B+v+C+D+E+F+G+H+I+J+K+L+M+N+O+P+++Q+R+                ",
"                =  +S+T+U+V+W+X+Y+Z+`+ @.@+@@@#@$@D+%@&@f+*@=@-@;@>@,@'@)@!@~@S+{@]@                ",
"              m.}+^@R+/@(@_@:@<@[@}@|@1@2@3@4@5@6@7@8@9@0@a@b@c@d@e@f@g@h@i@r   j@G ^@              ",
"              ++k@l@m@n@o@p@q@r@s@Z+t@u@v@w@x@X+y@z@A@B@C@D@E@F@G@H@I@J@K@L@M@  o+N@O@P@            ",
"            s Q@  W k Z (@R@S@T@U@V@W@X@Y@Z@`@ #.#+#@###$#%#&#*#=#-#;#>#,#'#)#F.!#  ~#j@            ",
"          u {#    ]#^#/#(#_#T@:#<#Y@[#}#|#1#2#3#4#5#6#7#8#9#0#a#b#c#d#>#e#f#g#P+++    h#s           ",
"          i#      o < j#k#l#m#n#o#p#q#r#s#t#u#v#w#x#y#z#A#B#C#D#E#F#G#H#I#J#S+K#L#    M#N#          ",
"          S+      O#- P#Q#R#S#T#U#V#W#X#Y#Z#`# $.$+$@$#$$$%$y &$*$=$-$;$>$,$'$)$I       !$          ",
"        F.        ~${@{$]$^$/$($_$:$<$[$}$|$1$2$3$4$5$6$7$8$9$0$a$b$c$d$e$f$)@!$g$        }+        ",
"        h$        j@M@i$& j$k$l$m$n$o$p$q$r$s$t$u$v$w$x$y$z$A$B$C$D$C$E$F$G$~$  h#        H$        ",
"        I$      n+  g#u | P#J$K$L$M$N$O$P$Q$R$S$T$U$V$W$X$Y$Z$`$ %.%+%Z$@%#%$%  %%o+      N@        ",
"                ]@  &%N#( *%=%Y -%;%>%,%'%)%!%~%{%]%^%/%(%_%:%<%[%[%}%|%1%2%      ]@                ",
"                3%    h#4%y 3 X 5%6%7%8%9%0%a%b%c%d%e%f%g%h%i%i%j%k%l%~#Q@        3%                ",
"                      Q@^@m o m%` n%o%p%q%r%s%t%u%v%w%w%x%y%z%A%B%C%D%K#                            ",
"                        k@~$  - E%F%G%H%I%J%K%L%M%N%O%P%Q%R%S%T%U%V%j@W%  X%                        ",
"                          Y%    m@' Z%..`%Z  &.&+&H%@&#&$&%&&&*&Q@g#%%H {#                          ",
"                            K#    3%++! E%> P# .=&=%=%X X -&;&>&| O+~$~#                            ",
"                              N@    ,&{#)@I p y b k.) : '&3 )&!& &~& +                              ",
"                                      W%{&~#]&~#Q@Q@~#{#^&F.p $ 3 !&/&                              ",
"                                          W%W%(&k@_&N@_&:&(&<&!$q , [&/&                            ",
"                                                W%W%W%W%W%W%      ]@= }&~&                          ",
"                                                                    h#o |&                          ",
"                                                                      _&8                           ",
"                                                                        N#^                         ",
"                                                                          4%                        ",
"                                                                                                    ",
"                                                                                                    ",
"                                                                                                    ",
"                                                                                                    ",
"                                                                                                    "};
