/* XPM */
static char * mozicon16_xpm[] = {
"16 16 92 2",
"  	c None",
". 	c #7C7A7A",
"+ 	c #646464",
"@ 	c #717170",
"# 	c #545454",
"$ 	c #575757",
"% 	c #5C5D5D",
"& 	c #535454",
"* 	c #595A5A",
"= 	c #535353",
"- 	c #636363",
"; 	c #595959",
"> 	c #696A6A",
", 	c #7E7A7A",
"' 	c #C07474",
") 	c #E9CDCD",
"! 	c #D79595",
"~ 	c #7F7171",
"{ 	c #565757",
"] 	c #505051",
"^ 	c #484848",
"/ 	c #634C4C",
"( 	c #F7B9B9",
"_ 	c #F4C5C5",
": 	c #F7E3E3",
"< 	c #E75858",
"[ 	c #D08787",
"} 	c #6A5D5D",
"| 	c #494747",
"1 	c #3E3E3E",
"2 	c #363737",
"3 	c #C88181",
"4 	c #FAF8F8",
"5 	c #E96A6A",
"6 	c #EE9898",
"7 	c #F2CCCC",
"8 	c #C57A7A",
"9 	c #7F6262",
"0 	c #2B1A1A",
"a 	c #2C2B2C",
"b 	c #303030",
"c 	c #E97F7F",
"d 	c #EC8A8A",
"e 	c #E86E6E",
"f 	c #EFB4B4",
"g 	c #DBCACA",
"h 	c #942020",
"i 	c #531E1E",
"j 	c #202F2F",
"k 	c #2A2A2B",
"l 	c #1B1B1B",
"m 	c #808080",
"n 	c #D64B4B",
"o 	c #E9ADAD",
"p 	c #EACDCD",
"q 	c #B80F0F",
"r 	c #993737",
"s 	c #705656",
"t 	c #301F1F",
"u 	c #201F1F",
"v 	c #1C1C1C",
"w 	c #4A494A",
"x 	c #B2AEAE",
"y 	c #B55959",
"z 	c #A04C4C",
"A 	c #831B1B",
"B 	c #693333",
"C 	c #463E3E",
"D 	c #280505",
"E 	c #241919",
"F 	c #1F1F1F",
"G 	c #676767",
"H 	c #B0ADAD",
"I 	c #887C7C",
"J 	c #542D2D",
"K 	c #360101",
"L 	c #320909",
"M 	c #370E0E",
"N 	c #120F0F",
"O 	c #4B4B4B",
"P 	c #888787",
"Q 	c #A5A4A4",
"R 	c #A6A3A3",
"S 	c #998D8D",
"T 	c #4A4444",
"U 	c #0C0E0D",
"V 	c #020202",
"W 	c #070707",
"X 	c #0B0B0B",
"Y 	c #717171",
"Z 	c #8C8C8C",
"` 	c #585858",
"                                ",
"                                ",
"            . + @               ",
"        # $ % & * = - ;         ",
"        > , ' ) ! ~ { ]         ",
"      ^ / ( _ : < [ } | 1       ",
"      2 3 4 5 6 7 8 9 0 a       ",
"    b > c d e f g h i j k l     ",
"      m n o p q r s t u v       ",
"      w x y z A B C D E F       ",
"        G H I J K L M N         ",
"          O P Q R S T U         ",
"            V W X F Y Z         ",
"                      `         ",
"                                ",
"                                "};
